<?xml version="1.0" encoding="UTF-8"?>
<svg width="12px" height="12px" viewBox="0 0 12 12" version="1.1" xmlns="http://www.w3.org/2000/svg" xmlns:xlink="http://www.w3.org/1999/xlink">
    <!-- Generator: Sketch 52.6 (67491) - http://www.bohemiancoding.com/sketch -->
    <title>Artboard</title>
    <desc>Created with Sketch.</desc>
    <g id="Artboard" stroke="none" stroke-width="1" fill="none" fill-rule="evenodd">
        <path d="M9.53553771,2.46446229 C8.59117127,1.52009582 7.33552551,1 6,1 C4.66447449,1 3.40882873,1.52009582 2.46446229,2.46446229 C1.52009582,3.40882873 1,4.66447449 1,6 C1,7.33552551 1.52009582,8.59117127 2.46446229,9.53553771 C3.40882873,10.4799042 4.66447449,11 6,11 C7.33552551,11 8.59117127,10.4799042 9.53553771,9.53553771 C10.4799042,8.59117127 11,7.33552551 11,6 C11,4.66447449 10.4799042,3.40882873 9.53553771,2.46446229 Z M6,10 C3.79441552,10 2,8.20558448 2,6 C2,3.79441552 3.79441552,2 6,2 C8.20558448,2 10,3.79441552 10,6 C10,8.20558448 8.20558448,10 6,10 Z M6.36363636,5.63636364 L8,5.63636364 L8,6.36363636 L6.36363636,6.36363636 L6.36363636,8 L5.63636364,8 L5.63636364,6.36363636 L4,6.36363636 L4,5.63636364 L5.63636364,5.63636364 L5.63636364,4 L6.36363636,4 L6.36363636,5.63636364 Z" id="Shape" fill="#0075D9" fill-rule="nonzero"></path>
    </g>
</svg>