<?xml version="1.0" encoding="UTF-8"?>
<svg width="10px" height="10px" viewBox="0 0 10 10" version="1.1" xmlns="http://www.w3.org/2000/svg" xmlns:xlink="http://www.w3.org/1999/xlink">
    <!-- Generator: Sketch 52.6 (67491) - http://www.bohemiancoding.com/sketch -->
    <title>Artboard</title>
    <desc>Created with Sketch.</desc>
    <g id="Artboard" stroke="none" stroke-width="1" fill="none" fill-rule="evenodd">
        <g id="Group-6-Copy" transform="translate(1.000000, 1.000000)" fill="#FF0000" fill-rule="nonzero">
            <polygon id="Shape" points="5.63303766 2.75821875 4.96227615 2.73525 4.81685356 6.4428125 5.48761506 6.4656875"></polygon>
            <polygon id="Rectangle-path" points="3.66440167 2.74673438 4.33559833 2.74673438 4.33559833 6.4543125 3.66440167 6.4543125"></polygon>
            <polygon id="Shape" points="3.18302929 6.44271875 3.03760669 2.73514062 2.36684519 2.758125 2.51228452 6.4656875"></polygon>
            <path d="M0.00634309623,1.20104688 L0.00634309623,1.82767188 L0.705740586,1.82767188 L1.26058577,7.71415625 C1.27579916,7.87592188 1.42090377,8 1.59484519,8 L6.393841,8 C6.56779916,8 6.71300418,7.87582813 6.72810042,7.71404688 L7.28296234,1.82767188 L7.9936569,1.82767188 L7.9936569,1.20104688 L0.00634309623,1.20104688 Z M6.08644351,7.373375 L1.902159,7.373375 L1.37951464,1.82767188 L6.60920502,1.82767188 L6.08644351,7.373375 Z" id="Shape"></path>
            <path d="M5.09630126,0 L2.90369874,0 C2.59528033,0 2.3443682,0.23425 2.3443682,0.5221875 L2.3443682,1.51435937 L3.01556485,1.51435937 L3.01556485,0.626625 L4.98443515,0.626625 L4.98443515,1.51435937 L5.6556318,1.51435937 L5.6556318,0.5221875 C5.6556318,0.23425 5.40471967,0 5.09630126,0 Z" id="Shape"></path>
        </g>
    </g>
</svg>