<?xml version="1.0" encoding="UTF-8"?>
<svg width="108px" height="70px" viewBox="0 0 108 70" version="1.1" xmlns="http://www.w3.org/2000/svg" xmlns:xlink="http://www.w3.org/1999/xlink">
    <!-- Generator: Sketch 52.6 (67491) - http://www.bohemiancoding.com/sketch -->
    <title>header icon</title>
    <desc>Created with Sketch.</desc>
    <g id="header-icon" stroke="none" stroke-width="1" fill="none" fill-rule="evenodd" opacity="0.107561384">
        <g id="Group" fill="#FFFFFF">
            <polyline id="path70" transform="translate(18.596089, 23.137646) scale(-1, 1) rotate(-180.000000) translate(-18.596089, -23.137646) " points="36.2028322 0.375609756 0.98934551 38.932283 0.98934551 45.8796216 36.2028322 45.8996823 36.2028322 33.9033813 14.6081985 34.9940501 36.2028322 12.2927238 36.2028322 0.375609756"></polyline>
            <polyline id="path74" transform="translate(54.351492, 34.265002) scale(-1, 1) rotate(-180.000000) translate(-54.351492, -34.265002) " points="69.8688901 55.6238448 50.8855441 5.91869919 38.8340944 12.907215 57.8174404 62.6113048 69.8688901 55.6238448"></polyline>
            <polyline id="path78" transform="translate(90.343425, 45.659482) scale(-1, 1) rotate(-180.000000) translate(-90.343425, -45.659482) " points="72.7366819 35.9559086 94.3313155 33.6119737 72.7366819 57.566566 72.7366819 69.5628671 107.950169 28.704492 107.950169 21.7560976 72.7366819 24.0387945 72.7366819 35.9559086"></polyline>
        </g>
    </g>
</svg>