<?xml version="1.0" encoding="UTF-8"?>
<svg width="11px" height="16px" viewBox="0 0 11 16" version="1.1" xmlns="http://www.w3.org/2000/svg" xmlns:xlink="http://www.w3.org/1999/xlink">
    <!-- Generator: Sketch 52.6 (67491) - http://www.bohemiancoding.com/sketch -->
    <title>Artboard</title>
    <desc>Created with Sketch.</desc>
    <g id="Artboard" stroke="none" stroke-width="1" fill="none" fill-rule="evenodd">
        <g id="lock" fill="#000000" fill-rule="nonzero">
            <path d="M10.1415747,6.13953125 L0.858425258,6.13953125 C0.393079897,6.13953125 0.0145154639,6.55684375 0.0145154639,7.06975 L0.0145154639,15.06975 C0.0145154639,15.5826875 0.393108247,15.9999688 0.858425258,15.9999688 L10.1415747,15.9999688 C10.6069201,15.9999688 10.9854845,15.5826563 10.9854845,15.06975 L10.9854845,7.06975 C10.9854845,6.55684375 10.6069201,6.13953125 10.1415747,6.13953125 Z M9.97280412,14.8837188 L1.02722423,14.8837188 L1.02722423,7.2558125 L9.97280412,7.2558125 L9.97280412,14.8837188 Z" id="Shape"></path>
            <path d="M5.5,0 C3.21988144,0 1.36479381,2.06159375 1.36479381,4.59534375 L1.36479381,6.511625 L2.37750258,6.511625 L2.37750258,4.59534375 C2.37750258,2.67703125 3.77824485,1.11628125 5.50002835,1.11628125 C7.22181186,1.11628125 8.62255412,2.67703125 8.62255412,4.59534375 L8.62255412,6.511625 L9.63526289,6.511625 L9.63526289,4.59534375 C9.63523454,2.06159375 7.78028866,0 5.5,0 Z" id="Shape"></path>
            <path d="M5.41560052,10.4185937 C5.13592268,10.4185937 4.90926031,10.6684687 4.90926031,10.9767187 L4.90926031,12.2790312 C4.90926031,12.5873125 5.13595103,12.8371562 5.41560052,12.8371562 C5.69525,12.8371562 5.92194072,12.5872813 5.92194072,12.2790312 L5.92194072,10.9767187 C5.92196907,10.6684688 5.69527835,10.4185937 5.41560052,10.4185937 Z" id="Shape"></path>
        </g>
    </g>
</svg>