<?xml version="1.0" encoding="UTF-8"?>
<svg width="557px" height="452px" viewBox="0 0 557 452" version="1.1" xmlns="http://www.w3.org/2000/svg" xmlns:xlink="http://www.w3.org/1999/xlink">
    <!-- Generator: Sketch 52.6 (67491) - http://www.bohemiancoding.com/sketch -->
    <title>Artboard</title>
    <desc>Created with Sketch.</desc>
    <g id="Artboard" stroke="none" stroke-width="1" fill="none" fill-rule="evenodd">
        <path d="M594.831462,60 L921.163016,250.770593 C923.383648,252.060449 923.624467,254.0125 921.702544,255.127709 L404.063743,555.247102 C402.139504,556.36252 398.777295,556.222801 396.556663,554.932736 L76.8366053,369.305555 C74.6159733,368.015722 74.375154,366.063625 76.299393,364.94844 L594.831462,60 Z" id="path30-copy" fill="#4D79F6" transform="translate(499.000000, 308.000000) scale(-1, 1) rotate(-180.000000) translate(-499.000000, -308.000000) "></path>
        <path d="M641.488036,24 L774.252642,101.692863 C775.156083,102.218167 775.254058,103.013155 774.472143,103.467333 L563.876169,225.693376 C563.093312,226.147639 561.725433,226.090738 560.821992,225.565348 L430.747204,149.967182 C429.843763,149.441887 429.745788,148.646879 430.528645,148.192711 L641.488036,24 Z" id="path30-copy-2" fill="#4D79F6" opacity="0.350190662" transform="translate(602.500000, 125.000000) scale(-1, 1) rotate(-180.000000) translate(-602.500000, -125.000000) "></path>
        <path d="M366.510945,209 L582.782565,335.539365 C584.254257,336.394935 584.413857,337.689743 583.140129,338.429468 L240.082339,537.500598 C238.807077,538.240462 236.578821,538.147785 235.107128,537.292077 L23.2171842,414.16437 C21.7454918,413.308816 21.5858922,412.013977 22.8611543,411.274268 L366.510945,209 Z" id="path30-copy-3" fill="#4D79F6" opacity="0.350190662" transform="translate(303.000000, 373.500000) scale(-1, 1) rotate(-180.000000) translate(-303.000000, -373.500000) "></path>
    </g>
</svg>