<?xml version="1.0" encoding="UTF-8"?>
<svg width="13px" height="14px" viewBox="0 0 13 14" version="1.1" xmlns="http://www.w3.org/2000/svg" xmlns:xlink="http://www.w3.org/1999/xlink">
    <!-- Generator: Sketch 52.6 (67491) - http://www.bohemiancoding.com/sketch -->
    <title>Artboard</title>
    <desc>Created with Sketch.</desc>
    <g id="Artboard" stroke="none" stroke-width="1" fill="none" fill-rule="evenodd">
        <g id="avatar" fill="#000000" fill-rule="nonzero">
            <path d="M6.44306569,7.54202899 C6.45888078,7.54202899 6.47469586,7.54202899 6.49367397,7.54202899 C6.5,7.54202899 6.50632603,7.54202899 6.51265207,7.54202899 C6.52214112,7.54202899 6.53479319,7.54202899 6.54428224,7.54202899 C7.47104623,7.52753623 8.22068127,7.22898551 8.77420925,6.65797101 C9.9919708,5.4 9.78953771,3.24347826 9.76739659,3.03768116 C9.68832117,1.49275362 8.89124088,0.753623188 8.23333333,0.408695652 C7.74306569,0.150724638 7.17055961,0.0115942029 6.53163017,0 L6.50948905,0 C6.50632603,0 6.5,0 6.49683698,0 L6.47785888,0 C6.12676399,0 5.43722628,0.052173913 4.77615572,0.397101449 C4.11192214,0.742028986 3.30218978,1.48115942 3.22311436,3.03768116 C3.20097324,3.24347826 2.99854015,5.4 4.2163017,6.65797101 C4.76666667,7.22898551 5.5163017,7.52753623 6.44306569,7.54202899 Z M4.0676399,3.11014493 C4.0676399,3.10144928 4.07080292,3.09275362 4.07080292,3.08695652 C4.17518248,1.00869565 5.78515815,0.785507246 6.47469586,0.785507246 L6.48734793,0.785507246 C6.49367397,0.785507246 6.50316302,0.785507246 6.51265207,0.785507246 C7.36666667,0.802898551 8.81849148,1.12173913 8.91654501,3.08695652 C8.91654501,3.09565217 8.91654501,3.10434783 8.91970803,3.11014493 C8.92287105,3.13043478 9.14428224,5.10144928 8.13844282,6.13913043 C7.73990268,6.55072464 7.20851582,6.75362319 6.50948905,6.75942029 C6.50316302,6.75942029 6.5,6.75942029 6.49367397,6.75942029 C6.48734793,6.75942029 6.48418491,6.75942029 6.47785888,6.75942029 C5.78199513,6.75362319 5.24744526,6.55072464 4.85206813,6.13913043 C3.84939173,5.10724638 4.06447689,3.12753623 4.0676399,3.11014493 Z" id="Shape"></path>
            <path d="M12.993674,11.1188406 C12.993674,11.115942 12.993674,11.1130435 12.993674,11.1101449 C12.993674,11.0869565 12.9905109,11.0637681 12.9905109,11.0376812 C12.9715328,10.4637681 12.9304136,9.12173913 11.5576642,8.69275362 C11.5481752,8.68985507 11.5355231,8.68695652 11.5260341,8.68405797 C10.0995134,8.35072464 8.913382,7.59710145 8.90072993,7.5884058 C8.70778589,7.46376812 8.44209246,7.50724638 8.30608273,7.68405797 C8.17007299,7.86086957 8.21751825,8.10434783 8.41046229,8.22898551 C8.46423358,8.26376812 9.72311436,9.06666667 11.2982968,9.43768116 C12.0352798,9.67826087 12.1175182,10.4 12.1396594,11.0608696 C12.1396594,11.0869565 12.1396594,11.1101449 12.1428224,11.1333333 C12.1459854,11.3942029 12.1270073,11.7971014 12.076399,12.0289855 C11.5639903,12.2956522 9.55547445,13.2173913 6.5,13.2173913 C3.45717762,13.2173913 1.43600973,12.2927536 0.920437956,12.026087 C0.869829684,11.7942029 0.847688564,11.3913043 0.854014599,11.1304348 C0.854014599,11.1072464 0.857177616,11.084058 0.857177616,11.057971 C0.879318735,10.3971014 0.961557178,9.67536232 1.69854015,9.43478261 C3.27372263,9.06376812 4.53260341,8.25797101 4.5863747,8.22608696 C4.77931873,8.10144928 4.82676399,7.85797101 4.69075426,7.68115942 C4.55474453,7.50434783 4.28905109,7.46086957 4.09610706,7.58550725 C4.08345499,7.5942029 2.90364964,8.34782609 1.47080292,8.68115942 C1.45815085,8.68405797 1.4486618,8.68695652 1.43917275,8.68985507 C0.0664233577,9.12173913 0.0253041363,10.4637681 0.00632603406,11.0347826 C0.00632603406,11.0608696 0.00632603406,11.084058 0.00316301703,11.1072464 C0.00316301703,11.1101449 0.00316301703,11.1130435 0.00316301703,11.115942 C-3.05788381e-15,11.2666667 -0.00316301703,12.0405797 0.164476886,12.4289855 C0.196107056,12.5043478 0.253041363,12.5681159 0.328953771,12.6115942 C0.423844282,12.6695652 2.69805353,13.9971014 6.50316302,13.9971014 C10.3082725,13.9971014 12.5824818,12.6666667 12.6773723,12.6115942 C12.7501217,12.5681159 12.810219,12.5043478 12.8418491,12.4289855 C13,12.0434783 12.996837,11.2695652 12.993674,11.1188406 Z" id="Shape"></path>
        </g>
    </g>
</svg>