<?xml version="1.0" encoding="UTF-8"?>
<svg width="30px" height="34px" viewBox="0 0 30 34" version="1.1" xmlns="http://www.w3.org/2000/svg" xmlns:xlink="http://www.w3.org/1999/xlink">
    <!-- Generator: Sketch 52.6 (67491) - http://www.bohemiancoding.com/sketch -->
    <title>Artboard</title>
    <desc>Created with Sketch.</desc>
    <defs>
        <linearGradient x1="26.0037721%" y1="-26.0033214%" x2="70.2179725%" y2="104.82441%" id="linearGradient-1">
            <stop stop-color="#DA3030" offset="0%"></stop>
            <stop stop-color="#038BEE" offset="100%"></stop>
        </linearGradient>
    </defs>
    <g id="Artboard" stroke="none" stroke-width="1" fill="none" fill-rule="evenodd">
        <g id="Group" transform="translate(1.000000, 1.000000)">
            <polygon id="Polygon" fill="url(#linearGradient-1)" fill-rule="nonzero" points="14.0062955 0 28.0125909 8 28.0125909 24 14.0062955 32 1.39951006e-14 24 5.05378631e-15 8"></polygon>
            <path d="M12.4046768,10.5118734 L17.5952605,18.6872896 L17.5952605,10.4361751 C17.5952605,9.89997609 17.7058585,9.4978329 17.9270579,9.22973342 C18.1482572,8.96163394 18.4467204,8.82758621 18.8224563,8.82758621 C19.2103127,8.82758621 19.516351,8.96163394 19.7405805,9.22973342 C19.96481,9.4978329 20.0769231,9.89997609 20.0769231,10.4361751 L20.0769231,21.3461923 C20.0769231,22.5636794 19.5921098,23.1724138 18.6224688,23.1724138 C18.3800586,23.1724138 18.1618926,23.1361421 17.9679644,23.0635975 C17.7740362,22.9910529 17.5922312,22.8759296 17.422544,22.718224 C17.2528569,22.5605184 17.0952926,22.3760057 16.9498464,22.1646802 C16.8044003,21.9533547 16.6589563,21.7373013 16.5135101,21.5165135 L11.4501912,13.4357201 L11.4501912,21.5638249 C11.4501912,22.0937157 11.332018,22.4942818 11.095668,22.7655354 C10.859318,23.036789 10.5563097,23.1724138 10.1866341,23.1724138 C9.80483791,23.1724138 9.49879955,23.035212 9.26850981,22.7608043 C9.03822007,22.4863966 8.92307692,22.0874075 8.92307692,21.5638249 L8.92307692,10.861978 C8.92307692,10.4077859 8.97155825,10.0513767 9.06852235,9.79273951 C9.18366722,9.50886948 9.37456243,9.27704575 9.64121372,9.0972614 C9.907865,8.91747704 10.1957229,8.82758621 10.5047959,8.82758621 C10.7472062,8.82758621 10.9547669,8.86858904 11.1274842,8.95059594 C11.3002015,9.03260284 11.4517056,9.14299509 11.5820011,9.281776 C11.7122966,9.42055691 11.8456203,9.60033857 11.9819761,9.82112638 C12.1183318,10.0419142 12.2592307,10.2721609 12.4046768,10.5118734 Z" id="numax-copy-3" fill="#FFFFFF"></path>
        </g>
    </g>
</svg>