<?xml version="1.0" encoding="UTF-8"?>
<svg width="10px" height="10px" viewBox="0 0 10 10" version="1.1" xmlns="http://www.w3.org/2000/svg" xmlns:xlink="http://www.w3.org/1999/xlink">
    <!-- Generator: Sketch 52.6 (67491) - http://www.bohemiancoding.com/sketch -->
    <title>right arrow</title>
    <desc>Created with Sketch.</desc>
    <g id="right-arrow" stroke="none" stroke-width="1" fill="none" fill-rule="evenodd">
        <g id="Group-3" fill="#FFFFFF" fill-rule="nonzero">
            <path d="M3.06602754,7.1054841 C3.11944508,7.16728193 3.18091877,7.19821334 3.25036438,7.19821334 C3.31980999,7.19821334 3.38128368,7.16728193 3.43470122,7.1054841 L6.58428719,3.45980179 L9.73398543,7.1054841 C9.78737491,7.16728193 9.84887666,7.19821334 9.91820999,7.19821334 C9.98776789,7.19821334 10.0492416,7.16728193 10.102631,7.1054841 L10.5033047,6.64161045 C10.5566942,6.57981262 10.5832205,6.50862489 10.5832205,6.42837218 C10.5832205,6.34795702 10.5565258,6.27680179 10.5033047,6.21500395 L6.76848368,1.89220973 C6.71512228,1.83028193 6.6537328,1.79951298 6.58428719,1.79951298 C6.51484157,1.79951298 6.45333982,1.8303794 6.39995035,1.89220973 L2.66540999,6.21497146 C2.61190824,6.27680179 2.58524157,6.34785955 2.58524157,6.42843717 C2.58524157,6.50862489 2.61199245,6.57978013 2.66540999,6.64161045 L3.06602754,7.1054841 Z" id="Shape" transform="translate(6.584231, 4.498863) rotate(90.000000) translate(-6.584231, -4.498863) "></path>
            <path d="M3.60214433,1.89225846 C3.54878292,1.83033067 3.48739345,1.79946424 3.41794784,1.79946424 C3.34850222,1.79946424 3.28700047,1.83042814 3.23361099,1.89225846 L-0.500929356,6.2150202 C-0.55443111,6.27685052 -0.581097777,6.34797327 -0.581097777,6.4284859 C-0.581097777,6.50880359 -0.5543469,6.57992633 -0.500929356,6.64175666 L-0.100311812,7.10559781 C-0.0468942682,7.16742814 0.014579416,7.19813211 0.0840250301,7.19813211 C0.153470644,7.19813211 0.214944328,7.16723319 0.268361872,7.10559781 L3.41794784,3.45981803 L6.56764608,7.10559781 C6.62103556,7.16742814 6.68253731,7.19826207 6.75187064,7.19826207 C6.82142854,7.19826207 6.88290222,7.16746063 6.9362917,7.10559781 L7.33696538,6.64175666 C7.39035485,6.57992633 7.41688117,6.5087711 7.41688117,6.4284859 C7.41688117,6.34797327 7.39018643,6.27685052 7.33696538,6.2150202 L3.60214433,1.89225846 Z" id="Shape" transform="translate(3.417892, 4.498863) rotate(90.000000) translate(-3.417892, -4.498863) "></path>
        </g>
    </g>
</svg>