<?xml version="1.0" encoding="UTF-8"?>
<svg width="36px" height="36px" viewBox="0 0 36 36" version="1.1" xmlns="http://www.w3.org/2000/svg" xmlns:xlink="http://www.w3.org/1999/xlink">
    <!-- Generator: Sketch 52.6 (67491) - http://www.bohemiancoding.com/sketch -->
    <title>Artboard</title>
    <desc>Created with Sketch.</desc>
    <defs>
        <circle id="path-1" cx="17" cy="17" r="17"></circle>
    </defs>
    <g id="Artboard" stroke="none" stroke-width="1" fill="none" fill-rule="evenodd">
        <g id="Shape" transform="translate(1.000000, 1.000000)">
            <mask id="mask-2" fill="white">
                <use xlink:href="#path-1"></use>
            </mask>
            <use id="Mask" fill="#4D79F6" xlink:href="#path-1"></use>
            <path d="M26.176,26.5421333 L21.802,25.6953333 C21.338,25.6064 21,25.2062 21,24.748 L21,23.7774667 C21.288,23.3908 21.556,22.8746 21.838,22.3352 C22.052,21.9272667 22.374,21.3105333 22.518,21.1674667 C23.366,20.3651333 24.27,19.3714 24.546,18.0722 C24.798,16.8967333 24.548,16.2858 24.256,15.8024667 C24.256,14.8570667 24.256,13.1248 23.916,11.8797333 C23.88,10.3717333 23.596,9.52106667 22.876,8.76706667 C22.368,8.2354 21.62,8.1136 21.02,8.015 C20.782,7.97633333 20.456,7.92413333 20.342,7.86226667 C19.306,7.30546667 18.252,7.03093333 16.962,7 C14.322,7.09473333 11.082,8.71486667 9.996,11.6226 C9.668,12.5061333 9.698,13.9561333 9.722,15.1219333 L9.696,15.8024667 C9.442,16.2858 9.192,16.8967333 9.442,18.0702667 C9.72,19.3714 10.624,20.3670667 11.472,21.1674667 C11.616,21.3144 11.942,21.9330667 12.158,22.341 C12.442,22.8765333 12.712,23.3927333 13,23.7794 L13,24.748 C13,25.2062 12.662,25.6064 12.198,25.6953333 L7.824,26.5421333 C5.03,27.0815333 3,29.4730667 3,32.2280667 L3,34.0666667 C3,35.1319333 3.896,36 5,36 L29,36 C30.104,36 31,35.1319333 31,34.0666667 L31,32.2280667 C31,29.4730667 28.97,27.0815333 26.176,26.5421333 Z M29,34.0666667 L5,34.0666667 L5,32.2280667 C5,30.3914 6.352,28.7964 8.214,28.4368 L12.588,27.59 C13.986,27.3212667 15,26.1264667 15,24.748 L15,23.4333333 C15,23.1742667 14.892,22.9248667 14.702,22.7450667 C14.53,22.5826667 14.16,21.8808667 13.94,21.4613333 C13.562,20.7479333 13.238,20.1331333 12.87,19.7851333 C12.206,19.1587333 11.568,18.4685333 11.4,17.6797333 C11.272,17.0707333 11.362,16.8986667 11.476,16.6802 C11.578,16.4868667 11.732,16.1968667 11.732,15.8024667 L11.722,15.0852 C11.706,14.2403333 11.674,12.8251333 11.878,12.2799333 C12.654,10.1996667 15.116,9.00293333 16.974,8.93333333 C17.89,8.95653333 18.608,9.1402 19.372,9.55006667 C19.786,9.7724 20.266,9.84973333 20.688,9.91933333 C20.926,9.958 21.322,10.0218 21.406,10.0759333 C21.676,10.3582 21.9,10.7023333 21.918,12.0305333 C21.92,12.1175333 21.934,12.2045333 21.958,12.2876667 C22.256,13.2756 22.256,14.9827333 22.256,15.8005333 C22.256,16.1949333 22.41,16.4849333 22.512,16.6782667 C22.628,16.8967333 22.718,17.0688 22.586,17.6816667 C22.42,18.4685333 21.784,19.1568 21.12,19.7832 C20.748,20.1331333 20.426,20.7498667 20.056,21.4613333 C19.834,21.8828 19.468,22.5826667 19.298,22.7450667 C19.108,22.9248667 19,23.1742667 19,23.4333333 L19,24.748 C19,26.1245333 20.014,27.3212667 21.412,27.5919333 L25.786,28.4387333 C27.648,28.7964 29,30.3914 29,32.2280667 L29,34.0666667 Z" fill="#FFFFFF" fill-rule="nonzero" mask="url(#mask-2)"></path>
        </g>
    </g>
</svg>